<svg aria-hidden="true" style="position:absolute;width:0;height:0;overflow:hidden" xmlns="http://www.w3.org/2000/svg">
  <defs>
    <symbol id="icon-instagram" viewBox="0 0 48 48">
      <path d="M24 0c-6.52 0-7.33.03-9.9.14-2.55.12-4.3.53-5.82 1.12-1.58.61-2.92 1.43-4.25 2.77S1.87 6.7 1.26 8.28C.66 9.8.26 11.55.14 14.1.03 16.66 0 17.48 0 24s.03 7.33.14 9.9c.12 2.55.53 4.3 1.12 5.82.61 1.58 1.43 2.92 2.77 4.25s2.67 2.16 4.25 2.77c1.52.6 3.27 1 5.82 1.12 2.56.11 3.38.14 9.9.14s7.33-.03 9.9-.14c2.55-.12 4.3-.53 5.82-1.12a11.75 11.75 0 0 0 4.25-2.77 11.78 11.78 0 0 0 2.77-4.25c.59-1.53 1-3.27 1.12-5.83.11-2.56.14-3.37.14-9.89s-.03-7.34-.14-9.9c-.12-2.55-.53-4.3-1.12-5.82-.61-1.58-1.43-2.92-2.77-4.25s-2.67-2.16-4.25-2.77c-1.53-.6-3.27-1-5.83-1.12C31.33.03 30.52 0 23.99 0H24zm-2.15 4.33H24c6.41 0 7.17.02 9.7.13 2.34.11 3.61.5 4.46.83 1.12.43 1.91.95 2.75 1.8s1.36 1.64 1.8 2.75c.33.85.72 2.12.83 4.46.11 2.53.14 3.29.14 9.7s-.03 7.16-.14 9.69c-.11 2.34-.5 3.61-.83 4.46-.43 1.11-.96 1.91-1.8 2.75s-1.63 1.36-2.75 1.8c-.85.33-2.12.72-4.46.82-2.53.12-3.29.14-9.7.14s-7.17-.02-9.7-.14c-2.34-.1-3.6-.5-4.45-.82-1.12-.44-1.92-.96-2.76-1.8s-1.36-1.64-1.8-2.76c-.33-.84-.72-2.11-.83-4.45-.11-2.53-.13-3.3-.13-9.7s.02-7.17.13-9.7c.11-2.34.5-3.6.83-4.45.44-1.12.96-1.92 1.8-2.76s1.64-1.36 2.76-1.8c.84-.33 2.11-.72 4.45-.82 2.22-.1 3.08-.13 7.55-.14z"/>
      <path d="M36.76 8.25a2.88 2.88 0 1 0 0 5.76 2.88 2.88 0 0 0 0-5.76zM23.95 11.62a12.32 12.32 0 1 1 0 24.64 12.32 12.32 0 0 1 0-24.64zM24 31.88a7.88 7.88 0 1 0 0-15.76 7.88 7.88 0 0 0 0 15.75z"/>
    </symbol>
    <symbol id="icon-github" viewBox="0 0 48 48">
      <path d="M24.04.18C10.81.18.1 11.08.1 24.54c0 10.77 6.86 19.9 16.38 23.13 1.2.22 1.64-.53 1.64-1.18l-.04-4.53C11.41 43.43 10 39.08 10 39.08c-1.09-2.81-2.66-3.56-2.66-3.56-2.17-1.52.17-1.48.17-1.48 2.4.17 3.67 2.5 3.67 2.5 2.14 3.73 5.6 2.66 6.97 2.03a5.22 5.22 0 0 1 1.52-3.26c-5.32-.61-10.91-2.7-10.91-12.04 0-2.66.93-4.83 2.47-6.54-.25-.61-1.07-3.09.23-6.45 0 0 2-.65 6.59 2.5a22.58 22.58 0 0 1 12 0c4.57-3.15 6.58-2.5 6.58-2.5 1.3 3.36.48 5.84.23 6.45a9.5 9.5 0 0 1 2.47 6.54c0 9.36-5.6 11.42-10.94 12.03.86.75 1.62 2.23 1.62 4.5 0 3.27-.03 5.89-.03 6.7 0 .64.43 1.4 1.65 1.16A24.33 24.33 0 0 0 48 24.55C48 11.08 37.27.17 24.04.17z"/>
      <path d="M9.16 35.16c-.05.12-.24.16-.41.08-.17-.08-.27-.25-.21-.37.05-.13.23-.16.4-.08.18.08.28.25.22.37zM10.13 36.26c-.11.11-.34.06-.49-.11-.16-.17-.18-.4-.07-.5.12-.11.34-.06.5.1.15.18.18.4.06.51zM11.08 37.67c-.15.1-.4 0-.54-.21-.15-.22-.15-.48 0-.59.15-.1.39 0 .54.21.15.22.15.48 0 .59zM12.37 39.02c-.13.15-.41.11-.62-.1-.2-.19-.26-.47-.13-.61.13-.15.41-.11.62.09.2.2.27.48.13.62zM14.15 39.8c-.05.2-.32.29-.6.2-.27-.08-.44-.3-.39-.5.06-.19.33-.28.6-.19.27.08.45.3.4.5zM16.11 39.95c.01.2-.22.37-.5.38-.29 0-.52-.16-.52-.36 0-.2.22-.36.5-.37.3 0 .52.16.52.35zM17.94 39.64c.03.2-.16.4-.45.45-.27.05-.53-.07-.57-.26-.03-.2.17-.4.45-.46.28-.05.53.07.57.27z"/>
    </symbol>
    <symbol id="icon-linkedIn" viewBox="0 0 48 48">
      <path d="M7.99 0H39A8 8 0 0 1 47 8v32a8 8 0 0 1-7.99 8H8A8 8 0 0 1 0 40V8a8 8 0 0 1 7.99-8zM6.45 10.74c0 2.41 1.83 4.17 4.08 4.17s4.08-1.76 4.08-4.17c0-2.42-1.83-4.18-4.08-4.18s-4.08 1.76-4.08 4.18zm26.63 30.51h7.08v-14.3c0-7.06-4.27-9.46-8.22-9.46-3.65 0-6.13 2.43-6.81 3.85v-3.2h-6.8v23.11h7.07V28.72c0-3.34 2.06-4.97 4.16-4.97 1.98 0 3.52 1.15 3.52 4.88v12.62zM14.07 18.12H6.99v23.11h7.08V18.13z"/>
    </symbol>
    <symbol id="icon-telegram" viewBox="0 0 48 48">
      <path d="M48 24a24 24 0 1 1-48 0 24 24 0 0 1 48 0zm-31.93-2.2c-2.4 1.05-4.87 2.13-7.13 3.37-1.18.87.39 1.48 1.86 2.05l.68.27.55.18c1.64.52 3.46 1.1 5.05.22 2.6-1.5 5.07-3.23 7.53-4.96l2.42-1.69.13-.08c.69-.45 2.24-1.46 1.67-.07a61.63 61.63 0 0 1-4.28 4.12 92.4 92.4 0 0 0-2.94 2.74c-.84.69-1.71 2.06-.77 3.02 2.17 1.52 4.37 3 6.57 4.48l2.15 1.45c1.21.97 3.1.18 3.38-1.33l.35-2.09c.66-3.84 1.32-7.69 1.9-11.54l.26-1.82c.21-1.47.43-2.94.5-4.41-.18-1.47-1.96-1.15-2.95-.82a461.65 461.65 0 0 0-15.2 6.16l-1.73.75z"/>
    </symbol>
  </defs>
</svg>
