<svg aria-hidden="true" style="position:absolute;width:0;height:0;overflow:hidden" xmlns="http://www.w3.org/2000/svg">
  <defs>
    <symbol id="icon-js" viewBox="0 0 48 48">
      <path fill="#ffd600" style="fill:var(--color1, #ffd600)" d="M6 42V6h36v36H6z" />
      <path fill="#000001" style="fill:var(--color2, #000001)" d="M29.54 32.95c.69 1.12 1.44 2.2 3.04 2.2 1.33 0 2.04-.67 2.04-1.59 0-1.1-.73-1.49-2.2-2.13l-.81-.34c-2.33-1-3.88-2.23-3.88-4.84 0-2.41 1.85-4.25 4.73-4.25 2.05 0 3.53.71 4.6 2.57l-2.52 1.61c-.56-.99-1.15-1.38-2.08-1.38-.95 0-1.55.6-1.55 1.38 0 .97.6 1.36 1.99 1.95l.8.35c2.75 1.17 4.3 2.36 4.3 5.04 0 2.9-2.28 4.48-5.35 4.48-3 0-4.7-1.5-5.65-3.37l2.54-1.68zm-11.59.08c.5.9 1.28 1.6 2.38 1.6 1.06 0 1.67-.42 1.67-2.04V22h3.33v11.1c0 3.37-1.95 4.9-4.8 4.9a5.85 5.85 0 0 1-5.2-3.37l2.62-1.6z" />
    </symbol>
    <symbol id="icon-html" viewBox="0 0 48 48">
      <path fill="#e65100" style="fill:var(--color3, #e65100)" d="M41 5H7l3 34 14 4 14-4 3-34z" />
      <path fill="#ff6d00" style="fill:var(--color4, #ff6d00)" d="M24 8v31.9l11.2-3.2L37.7 8z" />
      <path fill="#fff" style="fill:var(--color5, #fff)" d="M24 25v-4h8.6l-.7 11.5-7.9 2.6v-4.2l4.1-1.4.3-4.5H24zm8.9-8 .3-4H24v4h8.9z" />
      <path fill="#eee" style="fill:var(--color6, #eee)" d="M24 30.9v4.2l-7.9-2.6-.4-5.5h4l.2 2.5 4.1 1.4zM19.1 17H24v-4h-9.1l.7 12H24v-4h-4.6l-.3-4z" />
    </symbol>
    <symbol id="icon-css" viewBox="0 0 48 48">
      <path fill="#0277bd" style="fill:var(--color7, #0277bd)" d="M41 5H7l3 34 14 4 14-4 3-34z" />
      <path fill="#039be5" style="fill:var(--color8, #039be5)" d="M24 8v31.9l11.2-3.2L37.7 8z" />
      <path fill="#fff" style="fill:var(--color5, #fff)" d="M33.1 13H24v4h4.9l-.3 4H24v4h4.4l-.3 4.5-4.1 1.4v4.2l7.9-2.6.7-11.5z" />
      <path fill="#eee" style="fill:var(--color6, #eee)" d="M24 13v4h-8.9l-.3-4H24zm-4.6 8 .2 4H24v-4h-4.6zm.4 6h-4l.3 5.5 7.9 2.6v-4.2l-4.1-1.4-.1-2.5z" />
    </symbol>
    <symbol id="icon_modal_close" viewBox="0 0 32 32">
      <path d="m26.667 7.303-1.97-1.97-7.808 7.808-7.808-7.808-1.97 1.97 7.808 7.808-7.808 7.808 1.97 1.97 7.808-7.808 7.808 7.808 1.97-1.97-7.808-7.808 7.808-7.808z" />
    </symbol>
    <symbol id="icon-git" viewBox="0 0 48 48">
      <path fill="#f4511e" style="fill:var(--color9, #f4511e)" d="M42.2 22.1 25.9 5.8c-.5-.5-1.2-.8-1.9-.8s-1.4.3-1.9.8l-3.5 3.5 4.1 4.1c.4-.2.8-.3 1.3-.3 1.7 0 3 1.3 3 3 0 .5-.1.9-.3 1.3l4 4c.4-.2.8-.3 1.3-.3 1.7 0 3 1.3 3 3s-1.3 3-3 3-3-1.3-3-3c0-.5.1-.9.3-1.3l-4-4c-.1 0-.2.1-.3.1v10.4c1.2.4 2 1.5 2 2.8 0 1.7-1.3 3-3 3s-3-1.3-3-3c0-1.3.8-2.4 2-2.8V18.8c-1.2-.4-2-1.5-2-2.8 0-.5.1-.9.3-1.3l-4.1-4.1L5.8 22.1c-.5.5-.8 1.2-.8 1.9s.3 1.4.8 1.9l16.3 16.3c.5.5 1.2.8 1.9.8s1.4-.3 1.9-.8l16.3-16.3c.5-.5.8-1.2.8-1.9s-.3-1.4-.8-1.9z" />
    </symbol>
    <symbol id="icon-react" viewBox="0 0 48 48">
      <path fill="#80deea" style="fill:var(--color10, #80deea)" d="M24 34C11.1 34 1 29.6 1 24s10.1-10 23-10 23 4.4 23 10-10.1 10-23 10zm0-18c-12.6 0-21 4.1-21 8s8.4 8 21 8 21-4.1 21-8c0-3.9-8.4-8-21-8z" />
      <path fill="#80deea" style="fill:var(--color10, #80deea)" d="M15.1 44.6c-1 0-1.8-.2-2.6-.7-4.9-2.8-3.6-13.7 2.8-24.9 3-5.2 6.7-9.6 10.3-12.4 3.9-3 7.4-3.9 9.8-2.5 2.5 1.4 3.4 4.9 2.8 9.8-.6 4.6-2.6 10-5.6 15.2s-6.7 9.6-10.3 12.4c-2.6 2-5.1 3.1-7.2 3.1zM32.9 5.4c-1.6 0-3.7.9-6 2.7C23.5 10.8 20 15 17.1 20c-6.3 10.9-6.9 20.3-3.6 22.2 1.7 1 4.5.1 7.6-2.3C24.5 37.2 28 33 30.9 28s4.8-10.1 5.4-14.4c.5-4-.1-6.8-1.8-7.8-.5-.2-1-.4-1.6-.4z" />
      <path fill="#80deea" style="fill:var(--color10, #80deea)" d="M33 44.6c-5 0-12.2-6.1-17.6-15.6C8.9 17.8 7.6 6.9 12.5 4.1 17.4 1.3 26.2 7.8 32.7 19c3 5.2 5 10.6 5.6 15.2.7 4.9-.3 8.3-2.8 9.8-.8.4-1.6.6-2.5.6zM13.5 5.8c-3.3 1.9-2.7 11.3 3.6 22.2s14.1 16.1 17.4 14.2c1.7-1 2.3-3.8 1.8-7.8-.6-4.3-2.5-9.4-5.4-14.4C24.6 9.1 16.8 3.9 13.5 5.8z" />
      <path fill="#80deea" style="fill:var(--color10, #80deea)" d="M28 24a4 4 0 1 1-8 0 4 4 0 0 1 8 0z" />
    </symbol>
    <symbol id="icon-typescript" viewBox="0 0 48 48">
      <path fill="#1976d2" style="fill:var(--color11, #1976d2)" d="M6 6h36v36H6V6z" />
      <path fill="#fff" style="fill:var(--color5, #fff)" d="M27.49 22H14.23v3.26h4.75V40h3.77V25.26h4.74zM39.2 26.08s-1.8-1.19-3.81-1.19-2.75.96-2.75 1.99c0 2.65 7.38 2.38 7.38 7.71 0 8.2-11.25 4.57-11.25 4.57v-3.94s2.15 1.62 4.73 1.62 2.48-1.69 2.48-1.92c0-2.45-7.31-2.45-7.31-7.88 0-7.38 10.66-4.47 10.66-4.47l-.14 3.51z" />
    </symbol>
    <symbol id="icon-redux" viewBox="0 0 48 48">
      <path fill="#7e57c2" style="fill:var(--color12, #7e57c2)" d="M23 4c-6.62 0-12 7.27-12 16.2 0 4.84 1.58 9.17 4.08 12.14A2.99 2.99 0 0 0 18 36a3 3 0 1 0-.9-5.85c-1.9-2.42-3.1-5.98-3.1-9.95C14 12.92 18.04 7 23 7c3.84 0 7.11 3.55 8.4 8.52 1.13.34 2.24.78 3.33 1.3C33.58 9.52 28.76 4 23 4z" />
      <path fill="#7e57c2" style="fill:var(--color12, #7e57c2)" d="M35.5 20.08c-3.94-2.39-8.37-3.44-12.18-2.95A2.98 2.98 0 0 0 18 19a3 3 0 0 0 5.79 1.09c3.12-.38 6.81.53 10.16 2.56 6.4 3.88 9.67 10.57 7.28 14.91a6.55 6.55 0 0 1-4.21 3.1c-2.29.6-5.01.39-7.73-.54a24.5 24.5 0 0 1-2.73 2.17c2.56 1.12 5.2 1.7 7.67 1.7 1.24 0 2.44-.14 3.56-.44A9.47 9.47 0 0 0 43.86 39c3.16-5.73-.6-14.22-8.35-18.93z" />
      <path fill="#7e57c2" style="fill:var(--color12, #7e57c2)" d="M35 29a3 3 0 1 0-5.4 1.77 17.93 17.93 0 0 1-7.06 7.58c-3.87 2.34-8.19 3.2-11.56 2.3a6.55 6.55 0 0 1-4.21-3.09c-1.7-3.1-.53-7.37 2.6-10.99a22.94 22.94 0 0 1-.7-3.57C3.6 27.8 1.56 34.32 4.14 39a9.47 9.47 0 0 0 6.07 4.55c1.12.3 2.32.45 3.56.45 3.34 0 7-1.07 10.32-3.08a20.76 20.76 0 0 0 8.21-8.97A2.99 2.99 0 0 0 35 29z" />
    </symbol>
    <symbol id="icon-sass" viewBox="0 0 48 48">
      <path fill="#f06292" style="fill:var(--color13, #f06292)" d="M39.87 25.96c-1.54 0-2.87.37-3.99.92-.4-.81-.82-1.53-.89-2.06-.08-.62-.17-1-.08-1.74s.53-1.79.52-1.87c0-.08-.1-.45-.98-.46s-1.64.17-1.73.4-.26.77-.37 1.32c-.15.8-1.77 3.67-2.69 5.17-.3-.59-.55-1.1-.6-1.51-.09-.62-.18-1-.08-1.74s.52-1.79.52-1.87c0-.07-.1-.45-.98-.46s-1.65.17-1.74.4-.18.79-.37 1.32c-.18.53-2.32 5.31-2.89 6.55a37.8 37.8 0 0 1-.71 1.49s-.01.02-.03.06l-.24.46c-.12.22-.24.42-.3.42-.05 0-.14-.58.01-1.37.32-1.66 1.09-4.25 1.08-4.34 0-.04.14-.5-.5-.73-.63-.23-.85.15-.9.16-.06 0-.1.13-.1.13s.7-2.91-1.33-2.91c-1.27 0-3.03 1.39-3.9 2.64l-2.94 1.62-1.43.78-.1-.1c-2.45-2.62-7-4.48-6.8-8 .07-1.29.51-4.66 8.73-8.76 6.73-3.35 12.12-2.43 13.05-.38 1.33 2.92-2.88 8.35-9.87 9.13-2.66.3-4.07-.73-4.41-1.11-.37-.4-.43-.43-.56-.35-.23.12-.09.48 0 .7.2.54 1.06 1.5 2.52 1.98 1.29.42 4.41.65 8.2-.81 4.23-1.64 7.54-6.2 6.57-10-1-3.88-7.42-5.15-13.5-3-3.62 1.3-7.54 3.31-10.35 5.94-3.35 3.14-3.89 5.86-3.67 7 .79 4.05 6.36 6.69 8.6 8.64l-.31.17c-1.12.55-5.37 2.78-6.44 5.13-1.2 2.67.2 4.58 1.12 4.84 2.87.8 5.81-.64 7.4-3s1.39-5.43.66-6.83c0-.02-.02-.04-.03-.05l.88-.52c.57-.34 1.13-.65 1.61-.91-.27.74-.47 1.63-.57 2.92-.12 1.52.5 3.47 1.31 4.24.36.34.79.35 1.06.35.95 0 1.38-.78 1.85-1.71.58-1.14 1.1-2.47 1.1-2.47s-.65 3.58 1.12 3.58c.64 0 1.29-.83 1.58-1.26v.01l.05-.08.1-.17v-.02c.27-.45.84-1.47 1.7-3.16 1.11-2.18 2.18-4.92 2.18-4.92s.1.67.42 1.78c.2.65.6 1.37.92 2.06a24.17 24.17 0 0 1-1.1 1.43c-.87 1.04-1.91 2.24-2.05 2.58-.17.4-.13.7.19.95.23.17.65.2 1.08.17a4.92 4.92 0 0 0 1.62-.37c.42-.15.92-.39 1.39-.73a3.1 3.1 0 0 0 1.33-2.74 5.55 5.55 0 0 0-.5-1.93l.23-.34c1.35-1.99 2.4-4.17 2.4-4.17s.1.67.43 1.78c.16.56.49 1.17.78 1.77a7.57 7.57 0 0 0-2.34 3.03c-.5 1.46-.11 2.12.64 2.27.33.07.81-.08 1.17-.24.45-.14.98-.4 1.49-.76.86-.63 1.69-1.52 1.64-2.72a5.1 5.1 0 0 0-.38-1.6 8.4 8.4 0 0 1 4.27-.5c3.83.45 4.58 2.84 4.43 3.84s-.94 1.55-1.21 1.71c-.27.17-.35.23-.33.35.03.18.16.17.39.13.31-.05 2-.8 2.08-2.65.09-2.35-2.16-4.92-6.13-4.9zm-29.5 9.94c-1.27 1.38-3.04 1.9-3.8 1.47-.82-.48-.5-2.52 1.06-3.98.95-.9 2.17-1.72 2.99-2.23l.78-.47.09-.05.2-.12a5.5 5.5 0 0 1-1.32 5.38zm9.24-6.28c-.45 1.08-1.37 3.83-1.93 3.69-.49-.13-.78-2.23-.1-4.29a9.53 9.53 0 0 1 1.5-2.75c.7-.78 1.46-1.03 1.64-.72.24.4-.84 3.4-1.11 4.07zm7.62 3.64c-.18.1-.35.16-.43.12-.06-.04.07-.17.07-.17s.96-1.03 1.33-1.5c.22-.27.48-.59.75-.95v.1c0 1.24-1.19 2.07-1.72 2.4zm5.88-1.34c-.14-.1-.12-.42.34-1.42.18-.4.6-1.05 1.31-1.68.08.26.13.5.13.74 0 1.54-1.11 2.12-1.78 2.36z" />
    </symbol>
    <symbol id="icon-instagram" viewBox="0 0 48 48">
      <path d="M24 0c-6.52 0-7.33.03-9.9.14-2.55.12-4.3.53-5.82 1.12-1.58.61-2.92 1.43-4.25 2.77S1.87 6.7 1.26 8.28C.66 9.8.26 11.55.14 14.1.03 16.66 0 17.48 0 24s.03 7.33.14 9.9c.12 2.55.53 4.3 1.12 5.82.61 1.58 1.43 2.92 2.77 4.25s2.67 2.16 4.25 2.77c1.52.6 3.27 1 5.82 1.12 2.56.11 3.38.14 9.9.14s7.33-.03 9.9-.14c2.55-.12 4.3-.53 5.82-1.12a11.75 11.75 0 0 0 4.25-2.77 11.78 11.78 0 0 0 2.77-4.25c.59-1.53 1-3.27 1.12-5.83.11-2.56.14-3.37.14-9.89s-.03-7.34-.14-9.9c-.12-2.55-.53-4.3-1.12-5.82-.61-1.58-1.43-2.92-2.77-4.25s-2.67-2.16-4.25-2.77c-1.53-.6-3.27-1-5.83-1.12C31.33.03 30.52 0 23.99 0H24zm-2.15 4.33H24c6.41 0 7.17.02 9.7.13 2.34.11 3.61.5 4.46.83 1.12.43 1.91.95 2.75 1.8s1.36 1.64 1.8 2.75c.33.85.72 2.12.83 4.46.11 2.53.14 3.29.14 9.7s-.03 7.16-.14 9.69c-.11 2.34-.5 3.61-.83 4.46-.43 1.11-.96 1.91-1.8 2.75s-1.63 1.36-2.75 1.8c-.85.33-2.12.72-4.46.82-2.53.12-3.29.14-9.7.14s-7.17-.02-9.7-.14c-2.34-.1-3.6-.5-4.45-.82-1.12-.44-1.92-.96-2.76-1.8s-1.36-1.64-1.8-2.76c-.33-.84-.72-2.11-.83-4.45-.11-2.53-.13-3.3-.13-9.7s.02-7.17.13-9.7c.11-2.34.5-3.6.83-4.45.44-1.12.96-1.92 1.8-2.76s1.64-1.36 2.76-1.8c.84-.33 2.11-.72 4.45-.82 2.22-.1 3.08-.13 7.55-.14z" />
      <path d="M36.76 8.25a2.88 2.88 0 1 0 0 5.76 2.88 2.88 0 0 0 0-5.76zM23.95 11.62a12.32 12.32 0 1 1 0 24.64 12.32 12.32 0 0 1 0-24.64zM24 31.88a7.88 7.88 0 1 0 0-15.76 7.88 7.88 0 0 0 0 15.75z" />
    </symbol>
    <symbol id="icon-github" viewBox="0 0 48 48">
      <path d="M24.04.18C10.81.18.1 11.08.1 24.54c0 10.77 6.86 19.9 16.38 23.13 1.2.22 1.64-.53 1.64-1.18l-.04-4.53C11.41 43.43 10 39.08 10 39.08c-1.09-2.81-2.66-3.56-2.66-3.56-2.17-1.52.17-1.48.17-1.48 2.4.17 3.67 2.5 3.67 2.5 2.14 3.73 5.6 2.66 6.97 2.03a5.22 5.22 0 0 1 1.52-3.26c-5.32-.61-10.91-2.7-10.91-12.04 0-2.66.93-4.83 2.47-6.54-.25-.61-1.07-3.09.23-6.45 0 0 2-.65 6.59 2.5a22.58 22.58 0 0 1 12 0c4.57-3.15 6.58-2.5 6.58-2.5 1.3 3.36.48 5.84.23 6.45a9.5 9.5 0 0 1 2.47 6.54c0 9.36-5.6 11.42-10.94 12.03.86.75 1.62 2.23 1.62 4.5 0 3.27-.03 5.89-.03 6.7 0 .64.43 1.4 1.65 1.16A24.33 24.33 0 0 0 48 24.55C48 11.08 37.27.17 24.04.17z" />
      <path d="M9.16 35.16c-.05.12-.24.16-.41.08-.17-.08-.27-.25-.21-.37.05-.13.23-.16.4-.08.18.08.28.25.22.37zM10.13 36.26c-.11.11-.34.06-.49-.11-.16-.17-.18-.4-.07-.5.12-.11.34-.06.5.1.15.18.18.4.06.51zM11.08 37.67c-.15.1-.4 0-.54-.21-.15-.22-.15-.48 0-.59.15-.1.39 0 .54.21.15.22.15.48 0 .59zM12.37 39.02c-.13.15-.41.11-.62-.1-.2-.19-.26-.47-.13-.61.13-.15.41-.11.62.09.2.2.27.48.13.62zM14.15 39.8c-.05.2-.32.29-.6.2-.27-.08-.44-.3-.39-.5.06-.19.33-.28.6-.19.27.08.45.3.4.5zM16.11 39.95c.01.2-.22.37-.5.38-.29 0-.52-.16-.52-.36 0-.2.22-.36.5-.37.3 0 .52.16.52.35zM17.94 39.64c.03.2-.16.4-.45.45-.27.05-.53-.07-.57-.26-.03-.2.17-.4.45-.46.28-.05.53.07.57.27z" />
    </symbol>
    <symbol id="icon-linkedIn" viewBox="0 0 48 48">
      <path d="M7.99 0H39A8 8 0 0 1 47 8v32a8 8 0 0 1-7.99 8H8A8 8 0 0 1 0 40V8a8 8 0 0 1 7.99-8zM6.45 10.74c0 2.41 1.83 4.17 4.08 4.17s4.08-1.76 4.08-4.17c0-2.42-1.83-4.18-4.08-4.18s-4.08 1.76-4.08 4.18zm26.63 30.51h7.08v-14.3c0-7.06-4.27-9.46-8.22-9.46-3.65 0-6.13 2.43-6.81 3.85v-3.2h-6.8v23.11h7.07V28.72c0-3.34 2.06-4.97 4.16-4.97 1.98 0 3.52 1.15 3.52 4.88v12.62zM14.07 18.12H6.99v23.11h7.08V18.13z" />
    </symbol>
    <symbol id="icon-telegram" viewBox="0 0 48 48">
      <path d="M48 24a24 24 0 1 1-48 0 24 24 0 0 1 48 0zm-31.93-2.2c-2.4 1.05-4.87 2.13-7.13 3.37-1.18.87.39 1.48 1.86 2.05l.68.27.55.18c1.64.52 3.46 1.1 5.05.22 2.6-1.5 5.07-3.23 7.53-4.96l2.42-1.69.13-.08c.69-.45 2.24-1.46 1.67-.07a61.63 61.63 0 0 1-4.28 4.12 92.4 92.4 0 0 0-2.94 2.74c-.84.69-1.71 2.06-.77 3.02 2.17 1.52 4.37 3 6.57 4.48l2.15 1.45c1.21.97 3.1.18 3.38-1.33l.35-2.09c.66-3.84 1.32-7.69 1.9-11.54l.26-1.82c.21-1.47.43-2.94.5-4.41-.18-1.47-1.96-1.15-2.95-.82a461.65 461.65 0 0 0-15.2 6.16l-1.73.75z" />
    </symbol>
    <symbol id="itGeneration" viewBox="0 0 178 32">
      <path d="M50.35 16.37v2.54h4.2a4.62 4.62 0 0 1-4.66 3.74c-3.05 0-4.94-2.26-4.94-6 0-3.7 1.98-6.01 5.13-6.01a4.4 4.4 0 0 1 4.3 2.9l3.23-1.24c-1.2-3-3.93-4.67-7.44-4.67-5.36 0-8.83 3.65-8.83 9.06s3.24 8.97 8.14 8.97c2.4 0 4.3-.97 5.54-2.73l.23 2.5h2.64v-9.06h-7.54zM63.18 19.55h10.3c.15-.46.15-.73.15-1.06 0-4.34-2.68-7.16-6.8-7.16-4.2 0-6.97 2.91-6.97 7.16 0 4.12 2.45 7.17 7.2 7.17 2.78 0 4.77-1.02 6.01-2.45l-2.08-2a4.97 4.97 0 0 1-3.92 1.67c-2.18 0-3.56-1.24-3.89-3.32zm3.65-5.54c1.8 0 3.05 1.1 3.42 3.1h-7.02c.37-1.94 1.66-3.1 3.6-3.1zM83.73 11.33c-1.99 0-3.7.88-4.71 2.26l-.19-2.03h-2.96v13.86h3.33v-7.94c0-2 1.57-3.38 3.51-3.38 1.71 0 2.73 1.2 2.73 3.33v8h3.33v-8.78c0-3.2-2.08-5.32-5.04-5.32zM94.16 19.55h10.3c.14-.46.14-.73.14-1.06 0-4.34-2.68-7.16-6.8-7.16-4.2 0-6.97 2.91-6.97 7.16 0 4.12 2.45 7.17 7.21 7.17 2.77 0 4.76-1.02 6-2.45l-2.07-2a4.97 4.97 0 0 1-3.93 1.67c-2.17 0-3.56-1.24-3.88-3.32zm3.65-5.54c1.8 0 3.05 1.1 3.42 3.1H94.2c.37-1.94 1.67-3.1 3.61-3.1zM114.7 11.38c-2.03 0-3.7.87-4.7 2.35l-.2-2.17h-2.95v13.86h3.33V17.8c0-2.17 1.48-3.33 3.6-3.33.65 0 1.34.05 2.03.14l.05-3.14c-.37-.05-.79-.1-1.15-.1zM128.88 22.56c-.56 0-.84-.28-.84-.83v-5.78c0-2.86-2.08-4.62-5.59-4.62a8.6 8.6 0 0 0-6.1 2.36l1.99 2.08a5.47 5.47 0 0 1 3.93-1.71c1.66 0 2.68.64 2.68 1.61 0 .93-1.16 1.16-2.96 1.39-2.63.32-5.96 1.02-5.96 4.53 0 2.45 1.85 4.06 4.53 4.06 2.03 0 3.83-.87 4.85-2.26.23 1.48 1.1 2.13 2.82 2.13.6 0 .97-.05 1.2-.1v-2.86h-.56zm-7.63.46c-1.25 0-1.99-.65-1.99-1.7 0-1.53 1.53-1.77 3.1-2.04a7.62 7.62 0 0 0 2.5-.65v1.43c0 1.62-1.62 2.96-3.61 2.96zM140 14.33v-2.77h-4.07v-3.7h-2.96l-.37 3.7h-2.77v2.77h2.77v7.3c0 2.68 1.62 4.07 4.44 4.07 1.01 0 1.98-.1 2.95-.37v-2.96c-.78.19-1.38.23-2.21.23-1.2 0-1.85-.41-1.85-1.7v-6.57h4.06zM142.38 9.71h3.6V6.75h-3.6v2.96zm.14 15.71h3.33V11.56h-3.33v13.86zM155.58 25.66c4.25 0 7.16-2.87 7.16-7.17 0-4.34-2.82-7.16-7.16-7.16-4.25 0-7.16 2.86-7.16 7.16 0 4.35 2.82 7.17 7.16 7.17zm0-2.78c-2.3 0-3.74-1.66-3.74-4.39s1.43-4.39 3.74-4.39c2.31 0 3.74 1.67 3.74 4.4s-1.43 4.38-3.74 4.38zM172.9 11.33c-2 0-3.7.88-4.72 2.26l-.18-2.03h-2.96v13.86h3.33v-7.94c0-2 1.57-3.38 3.5-3.38 1.72 0 2.73 1.2 2.73 3.33v8h3.33v-8.78c0-3.2-2.08-5.32-5.04-5.32z"/>
      <path style="fill:var(--color2, #000)" d="M16.19 31.96c7 0 10.9 0 13.44-2.54s2.54-6.44 2.54-13.44c0-7 0-10.9-2.54-13.44S23.19 0 16.19 0c-7 0-10.9 0-13.44 2.54S.21 8.98.21 15.98c0 7 0 10.9 2.54 13.44s6.44 2.54 13.44 2.54z"/>
      <path fill="#fff" style="fill:var(--color3, #fff)" d="M14.46 8.54c0 .83-.37 1.51-1.68 1.51-1.25 0-1.68-.68-1.68-1.5s.43-1.52 1.68-1.52c1.3 0 1.68.68 1.68 1.51zM13.57 19.93l-2.71 1.9 2.88-10.14H8.57l-.74 2.03 3-.01-1.98 7.27a2.15 2.15 0 0 0 .8 2.36 2.22 2.22 0 0 0 2.55-.02l2.5-1.73c-.27-.42-.8-1.23-1.13-1.66zM21.63 19.93l-2.72 1.9L21.8 11.7h-5.18l-.73 2.03 3-.01-1.98 7.27a2.15 2.15 0 0 0 .79 2.36 2.22 2.22 0 0 0 2.56-.02l2.5-1.73c-.27-.42-.81-1.23-1.13-1.66z"/>
      <path fill="#fff" style="fill:var(--color3, #fff)" d="m18.9 21.8 2.37-8.04h3.68v-2.04h-3.13l.77-3.2H20.5l-1.1 3.2h-2.4l-1.12 2.04h2.98l-1.75 6.47 1.79 1.57z"/>
    </symbol>
  </defs>
</svg>